<mxfile host="app.diagrams.net" agent="Mozilla/5.0 (Windows NT 10.0; Win64; x64) AppleWebKit/537.36 (KHTML, like Gecko) Chrome/136.0.0.0 Safari/537.36" version="27.1.5">
  <diagram name="Page-1" id="nBL3-YvNLZU22UiAQBQ0">
    <mxGraphModel dx="1226" dy="1729" grid="1" gridSize="10" guides="1" tooltips="1" connect="1" arrows="1" fold="1" page="1" pageScale="1" pageWidth="850" pageHeight="1100" math="0" shadow="0">
      <root>
        <mxCell id="0" />
        <mxCell id="1" parent="0" />
        <mxCell id="iRZBNv0SGn_VmLRAQ4ih-5" value="Department" style="swimlane;fontStyle=1;align=center;verticalAlign=top;childLayout=stackLayout;horizontal=1;startSize=26;horizontalStack=0;resizeParent=1;resizeParentMax=0;resizeLast=0;collapsible=1;marginBottom=0;whiteSpace=wrap;html=1;" parent="1" vertex="1">
          <mxGeometry x="82" y="-661" width="160" height="84" as="geometry" />
        </mxCell>
        <mxCell id="iRZBNv0SGn_VmLRAQ4ih-6" value="- name: String" style="text;strokeColor=none;fillColor=none;align=left;verticalAlign=top;spacingLeft=4;spacingRight=4;overflow=hidden;rotatable=0;points=[[0,0.5],[1,0.5]];portConstraint=eastwest;whiteSpace=wrap;html=1;" parent="iRZBNv0SGn_VmLRAQ4ih-5" vertex="1">
          <mxGeometry y="26" width="160" height="24" as="geometry" />
        </mxCell>
        <mxCell id="iRZBNv0SGn_VmLRAQ4ih-7" value="" style="line;strokeWidth=1;fillColor=none;align=left;verticalAlign=middle;spacingTop=-1;spacingLeft=3;spacingRight=3;rotatable=0;labelPosition=right;points=[];portConstraint=eastwest;strokeColor=inherit;" parent="iRZBNv0SGn_VmLRAQ4ih-5" vertex="1">
          <mxGeometry y="50" width="160" height="8" as="geometry" />
        </mxCell>
        <mxCell id="iRZBNv0SGn_VmLRAQ4ih-8" value="+ getName(): void" style="text;strokeColor=none;fillColor=none;align=left;verticalAlign=top;spacingLeft=4;spacingRight=4;overflow=hidden;rotatable=0;points=[[0,0.5],[1,0.5]];portConstraint=eastwest;whiteSpace=wrap;html=1;" parent="iRZBNv0SGn_VmLRAQ4ih-5" vertex="1">
          <mxGeometry y="58" width="160" height="26" as="geometry" />
        </mxCell>
        <mxCell id="iRZBNv0SGn_VmLRAQ4ih-9" value="Office" style="swimlane;fontStyle=1;align=center;verticalAlign=top;childLayout=stackLayout;horizontal=1;startSize=26;horizontalStack=0;resizeParent=1;resizeParentMax=0;resizeLast=0;collapsible=1;marginBottom=0;whiteSpace=wrap;html=1;" parent="1" vertex="1">
          <mxGeometry x="338" y="-901" width="160" height="86" as="geometry" />
        </mxCell>
        <mxCell id="iRZBNv0SGn_VmLRAQ4ih-10" value="- name: String" style="text;strokeColor=none;fillColor=none;align=left;verticalAlign=top;spacingLeft=4;spacingRight=4;overflow=hidden;rotatable=0;points=[[0,0.5],[1,0.5]];portConstraint=eastwest;whiteSpace=wrap;html=1;" parent="iRZBNv0SGn_VmLRAQ4ih-9" vertex="1">
          <mxGeometry y="26" width="160" height="26" as="geometry" />
        </mxCell>
        <mxCell id="iRZBNv0SGn_VmLRAQ4ih-11" value="" style="line;strokeWidth=1;fillColor=none;align=left;verticalAlign=middle;spacingTop=-1;spacingLeft=3;spacingRight=3;rotatable=0;labelPosition=right;points=[];portConstraint=eastwest;strokeColor=inherit;" parent="iRZBNv0SGn_VmLRAQ4ih-9" vertex="1">
          <mxGeometry y="52" width="160" height="8" as="geometry" />
        </mxCell>
        <mxCell id="iRZBNv0SGn_VmLRAQ4ih-12" value="+ getName(): void" style="text;strokeColor=none;fillColor=none;align=left;verticalAlign=top;spacingLeft=4;spacingRight=4;overflow=hidden;rotatable=0;points=[[0,0.5],[1,0.5]];portConstraint=eastwest;whiteSpace=wrap;html=1;" parent="iRZBNv0SGn_VmLRAQ4ih-9" vertex="1">
          <mxGeometry y="60" width="160" height="26" as="geometry" />
        </mxCell>
        <mxCell id="iRZBNv0SGn_VmLRAQ4ih-13" value="Teacher" style="swimlane;fontStyle=1;align=center;verticalAlign=top;childLayout=stackLayout;horizontal=1;startSize=26;horizontalStack=0;resizeParent=1;resizeParentMax=0;resizeLast=0;collapsible=1;marginBottom=0;whiteSpace=wrap;html=1;" parent="1" vertex="1">
          <mxGeometry x="616" y="-481" width="204" height="190" as="geometry" />
        </mxCell>
        <mxCell id="iRZBNv0SGn_VmLRAQ4ih-14" value="- name: String&lt;div&gt;- age: int&lt;/div&gt;&lt;div&gt;- subjectMajor: String&lt;/div&gt;" style="text;strokeColor=none;fillColor=none;align=left;verticalAlign=top;spacingLeft=4;spacingRight=4;overflow=hidden;rotatable=0;points=[[0,0.5],[1,0.5]];portConstraint=eastwest;whiteSpace=wrap;html=1;" parent="iRZBNv0SGn_VmLRAQ4ih-13" vertex="1">
          <mxGeometry y="26" width="204" height="54" as="geometry" />
        </mxCell>
        <mxCell id="iRZBNv0SGn_VmLRAQ4ih-15" value="" style="line;strokeWidth=1;fillColor=none;align=left;verticalAlign=middle;spacingTop=-1;spacingLeft=3;spacingRight=3;rotatable=0;labelPosition=right;points=[];portConstraint=eastwest;strokeColor=inherit;" parent="iRZBNv0SGn_VmLRAQ4ih-13" vertex="1">
          <mxGeometry y="80" width="204" height="8" as="geometry" />
        </mxCell>
        <mxCell id="iRZBNv0SGn_VmLRAQ4ih-16" value="+ getName(): void&lt;div&gt;+ getAge(): void&lt;/div&gt;&lt;div&gt;+ setAge(int value): void&lt;/div&gt;&lt;div&gt;+ getSubjectMajor(): void&lt;/div&gt;&lt;div&gt;+ setSubjectMajor(String value): void&amp;nbsp;&lt;/div&gt;" style="text;strokeColor=none;fillColor=none;align=left;verticalAlign=top;spacingLeft=4;spacingRight=4;overflow=hidden;rotatable=0;points=[[0,0.5],[1,0.5]];portConstraint=eastwest;whiteSpace=wrap;html=1;" parent="iRZBNv0SGn_VmLRAQ4ih-13" vertex="1">
          <mxGeometry y="88" width="204" height="102" as="geometry" />
        </mxCell>
        <mxCell id="iRZBNv0SGn_VmLRAQ4ih-17" value="FacultyRoom" style="swimlane;fontStyle=1;align=center;verticalAlign=top;childLayout=stackLayout;horizontal=1;startSize=26;horizontalStack=0;resizeParent=1;resizeParentMax=0;resizeLast=0;collapsible=1;marginBottom=0;whiteSpace=wrap;html=1;" parent="1" vertex="1">
          <mxGeometry x="638" y="-901" width="160" height="86" as="geometry" />
        </mxCell>
        <mxCell id="iRZBNv0SGn_VmLRAQ4ih-18" value="- name: String" style="text;strokeColor=none;fillColor=none;align=left;verticalAlign=top;spacingLeft=4;spacingRight=4;overflow=hidden;rotatable=0;points=[[0,0.5],[1,0.5]];portConstraint=eastwest;whiteSpace=wrap;html=1;" parent="iRZBNv0SGn_VmLRAQ4ih-17" vertex="1">
          <mxGeometry y="26" width="160" height="26" as="geometry" />
        </mxCell>
        <mxCell id="iRZBNv0SGn_VmLRAQ4ih-19" value="" style="line;strokeWidth=1;fillColor=none;align=left;verticalAlign=middle;spacingTop=-1;spacingLeft=3;spacingRight=3;rotatable=0;labelPosition=right;points=[];portConstraint=eastwest;strokeColor=inherit;" parent="iRZBNv0SGn_VmLRAQ4ih-17" vertex="1">
          <mxGeometry y="52" width="160" height="8" as="geometry" />
        </mxCell>
        <mxCell id="iRZBNv0SGn_VmLRAQ4ih-20" value="+ getName(): void" style="text;strokeColor=none;fillColor=none;align=left;verticalAlign=top;spacingLeft=4;spacingRight=4;overflow=hidden;rotatable=0;points=[[0,0.5],[1,0.5]];portConstraint=eastwest;whiteSpace=wrap;html=1;" parent="iRZBNv0SGn_VmLRAQ4ih-17" vertex="1">
          <mxGeometry y="60" width="160" height="26" as="geometry" />
        </mxCell>
        <mxCell id="iRZBNv0SGn_VmLRAQ4ih-21" value="School" style="swimlane;fontStyle=1;align=center;verticalAlign=top;childLayout=stackLayout;horizontal=1;startSize=26;horizontalStack=0;resizeParent=1;resizeParentMax=0;resizeLast=0;collapsible=1;marginBottom=0;whiteSpace=wrap;html=1;" parent="1" vertex="1">
          <mxGeometry x="81" y="-901" width="160" height="160" as="geometry">
            <mxRectangle x="320" y="-140" width="100" height="30" as="alternateBounds" />
          </mxGeometry>
        </mxCell>
        <mxCell id="iRZBNv0SGn_VmLRAQ4ih-22" value="- name: String&lt;div&gt;- address: String&lt;/div&gt;&lt;div&gt;- type: String&lt;/div&gt;" style="text;strokeColor=none;fillColor=none;align=left;verticalAlign=top;spacingLeft=4;spacingRight=4;overflow=hidden;rotatable=0;points=[[0,0.5],[1,0.5]];portConstraint=eastwest;whiteSpace=wrap;html=1;" parent="iRZBNv0SGn_VmLRAQ4ih-21" vertex="1">
          <mxGeometry y="26" width="160" height="54" as="geometry" />
        </mxCell>
        <mxCell id="iRZBNv0SGn_VmLRAQ4ih-23" value="" style="line;strokeWidth=1;fillColor=none;align=left;verticalAlign=middle;spacingTop=-1;spacingLeft=3;spacingRight=3;rotatable=0;labelPosition=right;points=[];portConstraint=eastwest;strokeColor=inherit;" parent="iRZBNv0SGn_VmLRAQ4ih-21" vertex="1">
          <mxGeometry y="80" width="160" height="8" as="geometry" />
        </mxCell>
        <mxCell id="iRZBNv0SGn_VmLRAQ4ih-24" value="+ method(type): type&lt;div&gt;+ getName(): void&lt;/div&gt;&lt;div&gt;+ getAddress(): void&lt;/div&gt;&lt;div&gt;+ getType(): void&lt;/div&gt;" style="text;strokeColor=none;fillColor=none;align=left;verticalAlign=top;spacingLeft=4;spacingRight=4;overflow=hidden;rotatable=0;points=[[0,0.5],[1,0.5]];portConstraint=eastwest;whiteSpace=wrap;html=1;" parent="iRZBNv0SGn_VmLRAQ4ih-21" vertex="1">
          <mxGeometry y="88" width="160" height="72" as="geometry" />
        </mxCell>
        <mxCell id="s-pwR5v_92iqt-qqXt0D-4" value="Master Teacher" style="swimlane;fontStyle=1;align=center;verticalAlign=top;childLayout=stackLayout;horizontal=1;startSize=26;horizontalStack=0;resizeParent=1;resizeParentMax=0;resizeLast=0;collapsible=1;marginBottom=0;whiteSpace=wrap;html=1;" vertex="1" parent="1">
          <mxGeometry x="52" y="-481" width="220" height="190" as="geometry" />
        </mxCell>
        <mxCell id="s-pwR5v_92iqt-qqXt0D-5" value="- name: String&lt;div&gt;- age: int&lt;/div&gt;&lt;div&gt;- subjectMajor: String&lt;/div&gt;" style="text;strokeColor=none;fillColor=none;align=left;verticalAlign=top;spacingLeft=4;spacingRight=4;overflow=hidden;rotatable=0;points=[[0,0.5],[1,0.5]];portConstraint=eastwest;whiteSpace=wrap;html=1;" vertex="1" parent="s-pwR5v_92iqt-qqXt0D-4">
          <mxGeometry y="26" width="220" height="54" as="geometry" />
        </mxCell>
        <mxCell id="s-pwR5v_92iqt-qqXt0D-6" value="" style="line;strokeWidth=1;fillColor=none;align=left;verticalAlign=middle;spacingTop=-1;spacingLeft=3;spacingRight=3;rotatable=0;labelPosition=right;points=[];portConstraint=eastwest;strokeColor=inherit;" vertex="1" parent="s-pwR5v_92iqt-qqXt0D-4">
          <mxGeometry y="80" width="220" height="8" as="geometry" />
        </mxCell>
        <mxCell id="s-pwR5v_92iqt-qqXt0D-7" value="+ getName(): void&lt;div&gt;+ getAge(): void&lt;/div&gt;&lt;div&gt;+ setAge(int value): void&lt;/div&gt;&lt;div&gt;+ getSubjectMajor(): void&lt;/div&gt;&lt;div&gt;+ setSubjectMajor(String value): void&amp;nbsp;&lt;/div&gt;" style="text;strokeColor=none;fillColor=none;align=left;verticalAlign=top;spacingLeft=4;spacingRight=4;overflow=hidden;rotatable=0;points=[[0,0.5],[1,0.5]];portConstraint=eastwest;whiteSpace=wrap;html=1;" vertex="1" parent="s-pwR5v_92iqt-qqXt0D-4">
          <mxGeometry y="88" width="220" height="102" as="geometry" />
        </mxCell>
        <mxCell id="s-pwR5v_92iqt-qqXt0D-9" value="*" style="endArrow=open;html=1;endSize=12;startArrow=diamondThin;startSize=14;startFill=1;edgeStyle=orthogonalEdgeStyle;align=left;verticalAlign=bottom;rounded=0;entryX=0.502;entryY=0.999;entryDx=0;entryDy=0;entryPerimeter=0;exitX=0.5;exitY=0;exitDx=0;exitDy=0;fontSize=17;" edge="1" parent="1" target="iRZBNv0SGn_VmLRAQ4ih-24">
          <mxGeometry x="-0.7514" y="13" relative="1" as="geometry">
            <mxPoint x="161" y="-661" as="sourcePoint" />
            <mxPoint x="186" y="-691" as="targetPoint" />
            <mxPoint as="offset" />
          </mxGeometry>
        </mxCell>
        <mxCell id="s-pwR5v_92iqt-qqXt0D-12" value="1..*" style="endArrow=open;html=1;endSize=12;startArrow=diamondThin;startSize=14;startFill=0;edgeStyle=orthogonalEdgeStyle;align=left;verticalAlign=bottom;rounded=0;entryX=0.503;entryY=1.018;entryDx=0;entryDy=0;entryPerimeter=0;exitX=1;exitY=0.5;exitDx=0;exitDy=0;fontSize=14;" edge="1" parent="1" source="iRZBNv0SGn_VmLRAQ4ih-6">
          <mxGeometry x="-0.8537" relative="1" as="geometry">
            <mxPoint x="282" y="-601" as="sourcePoint" />
            <mxPoint x="417.48" y="-814.5319999999999" as="targetPoint" />
            <mxPoint as="offset" />
          </mxGeometry>
        </mxCell>
        <mxCell id="s-pwR5v_92iqt-qqXt0D-15" value="Extends" style="endArrow=block;endSize=16;endFill=0;html=1;rounded=0;exitX=1;exitY=0.5;exitDx=0;exitDy=0;entryX=0;entryY=0.5;entryDx=0;entryDy=0;" edge="1" parent="1" source="iRZBNv0SGn_VmLRAQ4ih-10" target="iRZBNv0SGn_VmLRAQ4ih-18">
          <mxGeometry width="160" relative="1" as="geometry">
            <mxPoint x="505" y="-761" as="sourcePoint" />
            <mxPoint x="665" y="-761" as="targetPoint" />
          </mxGeometry>
        </mxCell>
        <mxCell id="s-pwR5v_92iqt-qqXt0D-16" value="1" style="text;strokeColor=none;fillColor=none;align=left;verticalAlign=top;spacingLeft=4;spacingRight=4;overflow=hidden;rotatable=0;points=[[0,0.5],[1,0.5]];portConstraint=eastwest;whiteSpace=wrap;html=1;fontSize=14;" vertex="1" parent="1">
          <mxGeometry x="505" y="-887" width="30" height="26" as="geometry" />
        </mxCell>
        <mxCell id="s-pwR5v_92iqt-qqXt0D-17" value="1..*" style="endArrow=open;html=1;endSize=12;startArrow=diamondThin;startSize=14;startFill=0;edgeStyle=orthogonalEdgeStyle;align=left;verticalAlign=bottom;rounded=0;entryX=0.502;entryY=1.014;entryDx=0;entryDy=0;entryPerimeter=0;exitX=0.5;exitY=0;exitDx=0;exitDy=0;fontSize=14;" edge="1" parent="1" source="s-pwR5v_92iqt-qqXt0D-4" target="iRZBNv0SGn_VmLRAQ4ih-8">
          <mxGeometry x="-1" y="-3" relative="1" as="geometry">
            <mxPoint x="358.95" y="-449.4680000000001" as="sourcePoint" />
            <mxPoint x="534.4300000000001" y="-641" as="targetPoint" />
            <mxPoint as="offset" />
          </mxGeometry>
        </mxCell>
        <mxCell id="s-pwR5v_92iqt-qqXt0D-20" value="1..*" style="endArrow=open;html=1;endSize=12;startArrow=diamondThin;startSize=14;startFill=0;edgeStyle=orthogonalEdgeStyle;align=left;verticalAlign=bottom;rounded=0;entryX=0.998;entryY=0.014;entryDx=0;entryDy=0;entryPerimeter=0;exitX=-0.015;exitY=0.014;exitDx=0;exitDy=0;exitPerimeter=0;fontSize=14;" edge="1" parent="1" source="iRZBNv0SGn_VmLRAQ4ih-16" target="s-pwR5v_92iqt-qqXt0D-7">
          <mxGeometry x="-0.7319" relative="1" as="geometry">
            <mxPoint x="455" y="-451" as="sourcePoint" />
            <mxPoint x="285" y="-401" as="targetPoint" />
            <mxPoint as="offset" />
          </mxGeometry>
        </mxCell>
        <mxCell id="s-pwR5v_92iqt-qqXt0D-21" value="Manage" style="text;html=1;align=center;verticalAlign=middle;resizable=0;points=[];autosize=1;strokeColor=none;fillColor=none;fontSize=14;" vertex="1" parent="1">
          <mxGeometry x="419" y="-416" width="70" height="30" as="geometry" />
        </mxCell>
        <mxCell id="s-pwR5v_92iqt-qqXt0D-23" value="&lt;font style=&quot;font-size: 35px;&quot;&gt;Task-Sheet 1-5-1&lt;/font&gt;" style="text;html=1;align=center;verticalAlign=middle;resizable=0;points=[];autosize=1;strokeColor=none;fillColor=none;" vertex="1" parent="1">
          <mxGeometry x="280" y="-1100" width="290" height="60" as="geometry" />
        </mxCell>
        <mxCell id="s-pwR5v_92iqt-qqXt0D-24" value="Created by: Carlos Go" style="text;html=1;align=center;verticalAlign=middle;resizable=0;points=[];autosize=1;strokeColor=none;fillColor=none;fontSize=15;" vertex="1" parent="1">
          <mxGeometry x="340" y="-1050" width="170" height="30" as="geometry" />
        </mxCell>
      </root>
    </mxGraphModel>
  </diagram>
</mxfile>
